# xmcd
#
# Track frame offsets: 
#        150
#        14882
#        34566
#        53007
#        67824
#        92079
#        103660
#        118447
#        131901
#        147857
#        163276
#        174118
#        187596
#        203613
#        217750
#
# Disc length: 3136 seconds
#
# Revision: 8
# Processed by: cddbd v1.5.1PL0 Copyright (c) Steve Scherf et al.
# Submitted via: ExactAudioCopy v0.95a5
#
DISCID=cc0c3e0f
DTITLE=Various Artist - Essential Women In Blues (Disk 1 of 2)
DYEAR=1997
DGENRE=Blues
TTITLE0=Marcia Ball, Angela Strehli, Lou Ann Barton - A Fool In Love
TTITLE1=Koko Taylor - Jump for Joy
TTITLE2=Big Time Sarah - I Don't Want No Man
TTITLE3=Ida Cox - Wild Women Don't Have the Blues
TTITLE4=Ruth Brown - If I Can't Sell It (I'll Keep Sittin' On It)
TTITLE5=Sister Rosetta Tharpe - Trouble In Mind
TTITLE6=Alberta Hunter - I Got Myself a Workin' Man
TTITLE7=Candye Kane - No!  I Ain't Gonna Let You Go
TTITLE8=Lavelle White - Why Young Men Go Wild
TTITLE9=Bessie Smith - Do Your Duty
TTITLE10=Etta James - Good Rockin' Daddy
TTITLE11=Lil Green - Why Don't You Do Right?
TTITLE12=Saffire - I Want My Money Back
TTITLE13=Victoria Spivey - Dirty Tee Bee Blues
TTITLE14=Edith Wilson - Popa-Mama Blues
EXTD=LABEL =Platinum Entertainment, Inc.\nID =5141612572\nUPC =7514
EXTD=16-1257-25\nCOPYRIGHT =1997\n*****\nYEAR: 1997
EXTT0=
EXTT1=
EXTT2=
EXTT3=
EXTT4=
EXTT5=
EXTT6=
EXTT7=
EXTT8=
EXTT9=
EXTT10=
EXTT11=
EXTT12=
EXTT13=
EXTT14=
PLAYORDER=
